<?xml version="1.0" encoding="UTF-8" standalone="no"?>
<!DOCTYPE svg PUBLIC "-//W3C//DTD SVG 1.0//EN"
 "http://www.w3.org/TR/2001/REC-SVG-20010904/DTD/svg10.dtd" [
 <!ATTLIST svg xmlns:xlink CDATA #FIXED "http://www.w3.org/1999/xlink">
]>
<!-- Generated by Graphviz version 2.20.3 (Tue Oct 14 12:23:50 UTC 2008)
     For user: (philipp) philipp. -->
<!-- Title: _anonymous_0 Pages: 1 -->
<svg width="3159pt" height="260pt"
 viewBox="0.00 0.00 3159.00 260.00" xmlns="http://www.w3.org/2000/svg" xmlns:xlink="http://www.w3.org/1999/xlink">
<g id="graph0" class="graph" transform="scale(1 1) rotate(0) translate(4 256)">
<title>_anonymous_0</title>
<polygon style="fill:white;stroke:white;" points="-4,4 -4,-256 3155,-256 3155,4 -4,4"/>
<!-- org.softlang.operations.Cut -->
<g id="node1" class="node"><title>org.softlang.operations.Cut</title>
<ellipse style="fill:none;stroke:black;" cx="625" cy="-162" rx="116.935" ry="18"/>
<text text-anchor="middle" x="625" y="-157.9" style="font-family:Times New Roman;font-size:14.00;">org.softlang.operations.Cut</text>
</g>
<!-- org.softlang.recognizer.Parser -->
<g id="node3" class="node"><title>org.softlang.recognizer.Parser</title>
<ellipse style="fill:none;stroke:black;" cx="751" cy="-90" rx="127.163" ry="18"/>
<text text-anchor="middle" x="751" y="-85.9" style="font-family:Times New Roman;font-size:14.00;">org.softlang.recognizer.Parser</text>
</g>
<!-- org.softlang.operations.Cut&#45;&gt;org.softlang.recognizer.Parser -->
<g id="edge2" class="edge"><title>org.softlang.operations.Cut&#45;&gt;org.softlang.recognizer.Parser</title>
<path style="fill:none;stroke:black;" d="M656,-145C672,-135 693,-123 711,-113"/>
<polygon style="fill:black;stroke:black;" points="712.958,-115.916 720,-108 709.559,-109.797 712.958,-115.916"/>
</g>
<!-- java.io.Writer -->
<g id="node5" class="node"><title>java.io.Writer</title>
<ellipse style="fill:none;stroke:black;" cx="62" cy="-90" rx="62.0391" ry="18"/>
<text text-anchor="middle" x="62" y="-85.9" style="font-family:Times New Roman;font-size:14.00;">java.io.Writer</text>
</g>
<!-- org.softlang.operations.Cut&#45;&gt;java.io.Writer -->
<g id="edge4" class="edge"><title>org.softlang.operations.Cut&#45;&gt;java.io.Writer</title>
<path style="fill:none;stroke:black;" d="M518,-155C418,-147 265,-132 133,-108 128,-107 123,-106 117,-104"/>
<polygon style="fill:black;stroke:black;" points="117.492,-100.529 107,-102 116.119,-107.393 117.492,-100.529"/>
</g>
<!-- java.io.OutputStreamWriter -->
<g id="node7" class="node"><title>java.io.OutputStreamWriter</title>
<ellipse style="fill:none;stroke:black;" cx="258" cy="-90" rx="116.239" ry="18"/>
<text text-anchor="middle" x="258" y="-85.9" style="font-family:Times New Roman;font-size:14.00;">java.io.OutputStreamWriter</text>
</g>
<!-- org.softlang.operations.Cut&#45;&gt;java.io.OutputStreamWriter -->
<g id="edge6" class="edge"><title>org.softlang.operations.Cut&#45;&gt;java.io.OutputStreamWriter</title>
<path style="fill:none;stroke:black;" d="M552,-148C491,-136 403,-119 340,-106"/>
<polygon style="fill:black;stroke:black;" points="340.492,-102.529 330,-104 339.119,-109.393 340.492,-102.529"/>
</g>
<!-- java.io.FileOutputStream -->
<g id="node9" class="node"><title>java.io.FileOutputStream</title>
<ellipse style="fill:none;stroke:black;" cx="499" cy="-90" rx="107.012" ry="18"/>
<text text-anchor="middle" x="499" y="-85.9" style="font-family:Times New Roman;font-size:14.00;">java.io.FileOutputStream</text>
</g>
<!-- org.softlang.operations.Cut&#45;&gt;java.io.FileOutputStream -->
<g id="edge8" class="edge"><title>org.softlang.operations.Cut&#45;&gt;java.io.FileOutputStream</title>
<path style="fill:none;stroke:black;" d="M594,-145C577,-135 556,-123 539,-112"/>
<polygon style="fill:black;stroke:black;" points="540.441,-108.797 530,-107 537.042,-114.916 540.441,-108.797"/>
</g>
<!-- java.io.IOException -->
<g id="node11" class="node"><title>java.io.IOException</title>
<ellipse style="fill:none;stroke:black;" cx="984" cy="-90" rx="87.7515" ry="18"/>
<text text-anchor="middle" x="984" y="-85.9" style="font-family:Times New Roman;font-size:14.00;">java.io.IOException</text>
</g>
<!-- org.softlang.operations.Cut&#45;&gt;java.io.IOException -->
<g id="edge10" class="edge"><title>org.softlang.operations.Cut&#45;&gt;java.io.IOException</title>
<path style="fill:none;stroke:black;" d="M696,-148C759,-136 848,-117 911,-105"/>
<polygon style="fill:black;stroke:black;" points="911.881,-108.393 921,-103 910.508,-101.529 911.881,-108.393"/>
</g>
<!-- org.softlang.recognizer.Token.* -->
<g id="node16" class="node"><title>org.softlang.recognizer.Token.*</title>
<ellipse style="fill:none;stroke:black;" cx="1100" cy="-18" rx="134.112" ry="18"/>
<text text-anchor="middle" x="1100" y="-13.9" style="font-family:Times New Roman;font-size:14.00;">org.softlang.recognizer.Token.*</text>
</g>
<!-- org.softlang.recognizer.Parser&#45;&gt;org.softlang.recognizer.Token.* -->
<g id="edge38" class="edge"><title>org.softlang.recognizer.Parser&#45;&gt;org.softlang.recognizer.Token.*</title>
<path style="fill:none;stroke:black;" d="M823,-75C880,-64 958,-47 1017,-35"/>
<polygon style="fill:black;stroke:black;" points="1017.88,-38.3933 1027,-33 1016.51,-31.5292 1017.88,-38.3933"/>
</g>
<!-- java.io.FileNotFoundException -->
<g id="node18" class="node"><title>java.io.FileNotFoundException</title>
<ellipse style="fill:none;stroke:black;" cx="2456" cy="-18" rx="132.028" ry="18"/>
<text text-anchor="middle" x="2456" y="-13.9" style="font-family:Times New Roman;font-size:14.00;">java.io.FileNotFoundException</text>
</g>
<!-- org.softlang.recognizer.Parser&#45;&gt;java.io.FileNotFoundException -->
<g id="edge40" class="edge"><title>org.softlang.recognizer.Parser&#45;&gt;java.io.FileNotFoundException</title>
<path style="fill:none;stroke:black;" d="M839,-77C855,-75 872,-73 887,-72 1161,-49 1984,-28 2316,-21"/>
<polygon style="fill:black;stroke:black;" points="2316,-24.5001 2326,-21 2316,-17.5001 2316,-24.5001"/>
</g>
<!-- org.softlang.operations.Total -->
<g id="node12" class="node"><title>org.softlang.operations.Total</title>
<ellipse style="fill:none;stroke:black;" cx="1112" cy="-162" rx="122.994" ry="18"/>
<text text-anchor="middle" x="1112" y="-157.9" style="font-family:Times New Roman;font-size:14.00;">org.softlang.operations.Total</text>
</g>
<!-- org.softlang.operations.Total&#45;&gt;org.softlang.recognizer.Parser -->
<g id="edge12" class="edge"><title>org.softlang.operations.Total&#45;&gt;org.softlang.recognizer.Parser</title>
<path style="fill:none;stroke:black;" d="M1039,-147C979,-136 897,-119 835,-107"/>
<polygon style="fill:black;stroke:black;" points="835.492,-103.529 825,-105 834.119,-110.393 835.492,-103.529"/>
</g>
<!-- org.softlang.recognizer.Acceptor -->
<g id="node14" class="node"><title>org.softlang.recognizer.Acceptor</title>
<ellipse style="fill:none;stroke:black;" cx="1267" cy="-90" rx="138.976" ry="18"/>
<text text-anchor="middle" x="1267" y="-85.9" style="font-family:Times New Roman;font-size:14.00;">org.softlang.recognizer.Acceptor</text>
</g>
<!-- org.softlang.recognizer.Acceptor&#45;&gt;org.softlang.recognizer.Token.* -->
<g id="edge14" class="edge"><title>org.softlang.recognizer.Acceptor&#45;&gt;org.softlang.recognizer.Token.*</title>
<path style="fill:none;stroke:black;" d="M1227,-73C1204,-62 1175,-50 1149,-39"/>
<polygon style="fill:black;stroke:black;" points="1150.56,-35.8631 1140,-35 1147.72,-42.2598 1150.56,-35.8631"/>
</g>
<!-- org.softlang.recognizer.Acceptor&#45;&gt;java.io.FileNotFoundException -->
<g id="edge16" class="edge"><title>org.softlang.recognizer.Acceptor&#45;&gt;java.io.FileNotFoundException</title>
<path style="fill:none;stroke:black;" d="M1363,-77C1380,-75 1398,-73 1415,-72 1736,-44 2117,-29 2317,-22"/>
<polygon style="fill:black;stroke:black;" points="2317,-25.5001 2327,-22 2317,-18.5001 2317,-25.5001"/>
</g>
<!-- org.softlang.recognizer.Lexer -->
<g id="node19" class="node"><title>org.softlang.recognizer.Lexer</title>
<ellipse style="fill:none;stroke:black;" cx="1968" cy="-162" rx="123.884" ry="18"/>
<text text-anchor="middle" x="1968" y="-157.9" style="font-family:Times New Roman;font-size:14.00;">org.softlang.recognizer.Lexer</text>
</g>
<!-- org.softlang.recognizer.Lexer&#45;&gt;java.io.IOException -->
<g id="edge28" class="edge"><title>org.softlang.recognizer.Lexer&#45;&gt;java.io.IOException</title>
<path style="fill:none;stroke:black;" d="M1846,-159C1675,-153 1356,-140 1086,-108 1077,-107 1068,-105 1058,-104"/>
<polygon style="fill:black;stroke:black;" points="1058.49,-100.529 1048,-102 1057.12,-107.393 1058.49,-100.529"/>
</g>
<!-- org.softlang.recognizer.Lexer&#45;&gt;org.softlang.recognizer.Token.* -->
<g id="edge18" class="edge"><title>org.softlang.recognizer.Lexer&#45;&gt;org.softlang.recognizer.Token.*</title>
<path style="fill:none;stroke:black;" d="M1847,-158C1619,-150 1146,-131 1119,-108 1102,-93 1098,-66 1098,-46"/>
<polygon style="fill:black;stroke:black;" points="1101.5,-46 1098,-36 1094.5,-46 1101.5,-46"/>
</g>
<!-- org.softlang.recognizer.Lexer&#45;&gt;java.io.FileNotFoundException -->
<g id="edge24" class="edge"><title>org.softlang.recognizer.Lexer&#45;&gt;java.io.FileNotFoundException</title>
<path style="fill:none;stroke:black;" d="M2084,-156C2214,-147 2411,-131 2437,-108 2454,-93 2458,-66 2458,-46"/>
<polygon style="fill:black;stroke:black;" points="2461.5,-46 2458,-36 2454.5,-46 2461.5,-46"/>
</g>
<!-- java.io.File -->
<g id="node22" class="node"><title>java.io.File</title>
<ellipse style="fill:none;stroke:black;" cx="2575" cy="-90" rx="52.8111" ry="18"/>
<text text-anchor="middle" x="2575" y="-85.9" style="font-family:Times New Roman;font-size:14.00;">java.io.File</text>
</g>
<!-- org.softlang.recognizer.Lexer&#45;&gt;java.io.File -->
<g id="edge20" class="edge"><title>org.softlang.recognizer.Lexer&#45;&gt;java.io.File</title>
<path style="fill:none;stroke:black;" d="M2073,-152C2174,-143 2333,-126 2470,-108 2486,-106 2503,-103 2518,-100"/>
<polygon style="fill:black;stroke:black;" points="2518.88,-103.393 2528,-98 2517.51,-96.5292 2518.88,-103.393"/>
</g>
<!-- java.io.BufferedReader -->
<g id="node24" class="node"><title>java.io.BufferedReader</title>
<ellipse style="fill:none;stroke:black;" cx="1524" cy="-90" rx="100.063" ry="18"/>
<text text-anchor="middle" x="1524" y="-85.9" style="font-family:Times New Roman;font-size:14.00;">java.io.BufferedReader</text>
</g>
<!-- org.softlang.recognizer.Lexer&#45;&gt;java.io.BufferedReader -->
<g id="edge22" class="edge"><title>org.softlang.recognizer.Lexer&#45;&gt;java.io.BufferedReader</title>
<path style="fill:none;stroke:black;" d="M1885,-149C1817,-138 1718,-122 1633,-108 1625,-107 1616,-105 1608,-104"/>
<polygon style="fill:black;stroke:black;" points="1608.49,-100.529 1598,-102 1607.12,-107.393 1608.49,-100.529"/>
</g>
<!-- java.io.FileReader -->
<g id="node27" class="node"><title>java.io.FileReader</title>
<ellipse style="fill:none;stroke:black;" cx="1722" cy="-90" rx="80.1057" ry="18"/>
<text text-anchor="middle" x="1722" y="-85.9" style="font-family:Times New Roman;font-size:14.00;">java.io.FileReader</text>
</g>
<!-- org.softlang.recognizer.Lexer&#45;&gt;java.io.FileReader -->
<g id="edge26" class="edge"><title>org.softlang.recognizer.Lexer&#45;&gt;java.io.FileReader</title>
<path style="fill:none;stroke:black;" d="M1913,-146C1873,-135 1821,-119 1781,-107"/>
<polygon style="fill:black;stroke:black;" points="1781.58,-103.521 1771,-104 1779.57,-110.226 1781.58,-103.521"/>
</g>
<!-- java.io.Reader -->
<g id="node30" class="node"><title>java.io.Reader</title>
<ellipse style="fill:none;stroke:black;" cx="1886" cy="-90" rx="66.2071" ry="18"/>
<text text-anchor="middle" x="1886" y="-85.9" style="font-family:Times New Roman;font-size:14.00;">java.io.Reader</text>
</g>
<!-- org.softlang.recognizer.Lexer&#45;&gt;java.io.Reader -->
<g id="edge30" class="edge"><title>org.softlang.recognizer.Lexer&#45;&gt;java.io.Reader</title>
<path style="fill:none;stroke:black;" d="M1948,-144C1937,-135 1924,-124 1913,-114"/>
<polygon style="fill:black;stroke:black;" points="1915.55,-111.596 1906,-107 1910.6,-116.546 1915.55,-111.596"/>
</g>
<!-- java.util.HashMap -->
<g id="node32" class="node"><title>java.util.HashMap</title>
<ellipse style="fill:none;stroke:black;" cx="2050" cy="-90" rx="80.1057" ry="18"/>
<text text-anchor="middle" x="2050" y="-85.9" style="font-family:Times New Roman;font-size:14.00;">java.util.HashMap</text>
</g>
<!-- org.softlang.recognizer.Lexer&#45;&gt;java.util.HashMap -->
<g id="edge32" class="edge"><title>org.softlang.recognizer.Lexer&#45;&gt;java.util.HashMap</title>
<path style="fill:none;stroke:black;" d="M1988,-144C1998,-135 2011,-124 2022,-115"/>
<polygon style="fill:black;stroke:black;" points="2024.78,-117.219 2030,-108 2020.17,-111.951 2024.78,-117.219"/>
</g>
<!-- java.util.Iterator -->
<g id="node34" class="node"><title>java.util.Iterator</title>
<ellipse style="fill:none;stroke:black;" cx="2219" cy="-90" rx="70.878" ry="18"/>
<text text-anchor="middle" x="2219" y="-85.9" style="font-family:Times New Roman;font-size:14.00;">java.util.Iterator</text>
</g>
<!-- org.softlang.recognizer.Lexer&#45;&gt;java.util.Iterator -->
<g id="edge34" class="edge"><title>org.softlang.recognizer.Lexer&#45;&gt;java.util.Iterator</title>
<path style="fill:none;stroke:black;" d="M2024,-146C2066,-134 2121,-119 2162,-107"/>
<polygon style="fill:black;stroke:black;" points="2163.43,-110.226 2172,-104 2161.42,-103.521 2163.43,-110.226"/>
</g>
<!-- java.util.Map -->
<g id="node36" class="node"><title>java.util.Map</title>
<ellipse style="fill:none;stroke:black;" cx="2368" cy="-90" rx="59.9551" ry="18"/>
<text text-anchor="middle" x="2368" y="-85.9" style="font-family:Times New Roman;font-size:14.00;">java.util.Map</text>
</g>
<!-- org.softlang.recognizer.Lexer&#45;&gt;java.util.Map -->
<g id="edge36" class="edge"><title>org.softlang.recognizer.Lexer&#45;&gt;java.util.Map</title>
<path style="fill:none;stroke:black;" d="M2057,-149C2124,-140 2218,-125 2299,-108 2304,-107 2309,-106 2313,-104"/>
<polygon style="fill:black;stroke:black;" points="2313.88,-107.393 2323,-102 2312.51,-100.529 2313.88,-107.393"/>
</g>
<!-- org.softlang.recognizer.RecognitionException -->
<g id="node39" class="node"><title>org.softlang.recognizer.RecognitionException</title>
<ellipse style="fill:none;stroke:black;" cx="2691" cy="-234" rx="187.814" ry="18"/>
<text text-anchor="middle" x="2691" y="-229.9" style="font-family:Times New Roman;font-size:14.00;">org.softlang.recognizer.RecognitionException</text>
</g>
<!-- org.softlang.recognizer.Token -->
<g id="node40" class="node"><title>org.softlang.recognizer.Token</title>
<ellipse style="fill:none;stroke:black;" cx="3024" cy="-234" rx="127.163" ry="18"/>
<text text-anchor="middle" x="3024" y="-229.9" style="font-family:Times New Roman;font-size:14.00;">org.softlang.recognizer.Token</text>
</g>
<!-- org.softlang.tests.Noop -->
<g id="node41" class="node"><title>org.softlang.tests.Noop</title>
<ellipse style="fill:none;stroke:black;" cx="2791" cy="-162" rx="102.843" ry="18"/>
<text text-anchor="middle" x="2791" y="-157.9" style="font-family:Times New Roman;font-size:14.00;">org.softlang.tests.Noop</text>
</g>
<!-- org.softlang.tests.Noop&#45;&gt;java.io.FileNotFoundException -->
<g id="edge48" class="edge"><title>org.softlang.tests.Noop&#45;&gt;java.io.FileNotFoundException</title>
<path style="fill:none;stroke:black;" d="M2748,-146C2725,-136 2698,-123 2675,-108 2655,-94 2657,-83 2637,-72 2608,-55 2574,-43 2544,-35"/>
<polygon style="fill:black;stroke:black;" points="2544.49,-31.5292 2534,-33 2543.12,-38.3933 2544.49,-31.5292"/>
</g>
<!-- org.softlang.tests.Noop&#45;&gt;java.io.File -->
<g id="edge46" class="edge"><title>org.softlang.tests.Noop&#45;&gt;java.io.File</title>
<path style="fill:none;stroke:black;" d="M2743,-146C2707,-134 2658,-118 2623,-106"/>
<polygon style="fill:black;stroke:black;" points="2623.58,-102.521 2613,-103 2621.57,-109.226 2623.58,-102.521"/>
</g>
<!-- org.junit.Test -->
<g id="node43" class="node"><title>org.junit.Test</title>
<ellipse style="fill:none;stroke:black;" cx="2978" cy="-90" rx="62.0391" ry="18"/>
<text text-anchor="middle" x="2978" y="-85.9" style="font-family:Times New Roman;font-size:14.00;">org.junit.Test</text>
</g>
<!-- org.softlang.tests.Noop&#45;&gt;org.junit.Test -->
<g id="edge42" class="edge"><title>org.softlang.tests.Noop&#45;&gt;org.junit.Test</title>
<path style="fill:none;stroke:black;" d="M2834,-145C2863,-134 2901,-119 2930,-108"/>
<polygon style="fill:black;stroke:black;" points="2932.02,-110.964 2940,-104 2929.42,-104.464 2932.02,-110.964"/>
</g>
<!-- org.softlang.recognizer.* -->
<g id="node45" class="node"><title>org.softlang.recognizer.*</title>
<ellipse style="fill:none;stroke:black;" cx="2791" cy="-90" rx="107.012" ry="18"/>
<text text-anchor="middle" x="2791" y="-85.9" style="font-family:Times New Roman;font-size:14.00;">org.softlang.recognizer.*</text>
</g>
<!-- org.softlang.tests.Noop&#45;&gt;org.softlang.recognizer.* -->
<g id="edge44" class="edge"><title>org.softlang.tests.Noop&#45;&gt;org.softlang.recognizer.*</title>
<path style="fill:none;stroke:black;" d="M2791,-144C2791,-136 2791,-127 2791,-118"/>
<polygon style="fill:black;stroke:black;" points="2794.5,-118 2791,-108 2787.5,-118 2794.5,-118"/>
</g>
<!-- org.softlang.tests.Operations -->
<g id="node48" class="node"><title>org.softlang.tests.Operations</title>
<ellipse style="fill:none;stroke:black;" cx="2362" cy="-234" rx="122.994" ry="18"/>
<text text-anchor="middle" x="2362" y="-229.9" style="font-family:Times New Roman;font-size:14.00;">org.softlang.tests.Operations</text>
</g>
<!-- org.softlang.tests.Operations&#45;&gt;org.softlang.operations.Cut -->
<g id="edge56" class="edge"><title>org.softlang.tests.Operations&#45;&gt;org.softlang.operations.Cut</title>
<path style="fill:none;stroke:black;" d="M2242,-230C2003,-221 1447,-201 980,-180 902,-176 815,-171 746,-168"/>
<polygon style="fill:black;stroke:black;" points="746,-164.5 736,-168 746,-171.5 746,-164.5"/>
</g>
<!-- org.softlang.tests.Operations&#45;&gt;java.io.IOException -->
<g id="edge62" class="edge"><title>org.softlang.tests.Operations&#45;&gt;java.io.IOException</title>
<path style="fill:none;stroke:black;" d="M2254,-225C2034,-208 1523,-164 1095,-108 1084,-106 1073,-105 1062,-103"/>
<polygon style="fill:black;stroke:black;" points="1062.49,-99.5292 1052,-101 1061.12,-106.393 1062.49,-99.5292"/>
</g>
<!-- org.softlang.tests.Operations&#45;&gt;org.softlang.operations.Total -->
<g id="edge54" class="edge"><title>org.softlang.tests.Operations&#45;&gt;org.softlang.operations.Total</title>
<path style="fill:none;stroke:black;" d="M2247,-227C2013,-214 1479,-183 1236,-170"/>
<polygon style="fill:black;stroke:black;" points="1236.3,-166.512 1226,-169 1235.6,-173.478 1236.3,-166.512"/>
</g>
<!-- org.softlang.tests.Operations&#45;&gt;java.io.FileNotFoundException -->
<g id="edge60" class="edge"><title>org.softlang.tests.Operations&#45;&gt;java.io.FileNotFoundException</title>
<path style="fill:none;stroke:black;" d="M2361,-216C2361,-196 2364,-165 2381,-144 2404,-114 2437,-139 2457,-108 2468,-90 2467,-65 2464,-46"/>
<polygon style="fill:black;stroke:black;" points="2467.39,-45.1194 2462,-36 2460.53,-46.4922 2467.39,-45.1194"/>
</g>
<!-- org.softlang.tests.Operations&#45;&gt;java.io.File -->
<g id="edge58" class="edge"><title>org.softlang.tests.Operations&#45;&gt;java.io.File</title>
<path style="fill:none;stroke:black;" d="M2444,-221C2524,-207 2634,-188 2641,-180 2651,-167 2647,-158 2641,-144 2635,-130 2624,-119 2612,-111"/>
<polygon style="fill:black;stroke:black;" points="2614.1,-108.2 2604,-105 2609.9,-113.8 2614.1,-108.2"/>
</g>
<!-- org.softlang.tests.Operations&#45;&gt;org.junit.Test -->
<g id="edge50" class="edge"><title>org.softlang.tests.Operations&#45;&gt;org.junit.Test</title>
<path style="fill:none;stroke:black;" d="M2449,-221C2464,-219 2479,-217 2494,-216 2584,-205 2822,-222 2903,-180 2930,-165 2951,-137 2964,-117"/>
<polygon style="fill:black;stroke:black;" points="2967.2,-118.441 2969,-108 2961.08,-115.042 2967.2,-118.441"/>
</g>
<!-- org.junit.Assert.assertEquals -->
<g id="node51" class="node"><title>org.junit.Assert.assertEquals</title>
<ellipse style="fill:none;stroke:black;" cx="2511" cy="-162" rx="121.104" ry="18"/>
<text text-anchor="middle" x="2511" y="-157.9" style="font-family:Times New Roman;font-size:14.00;">org.junit.Assert.assertEquals</text>
</g>
<!-- org.softlang.tests.Operations&#45;&gt;org.junit.Assert.assertEquals -->
<g id="edge52" class="edge"><title>org.softlang.tests.Operations&#45;&gt;org.junit.Assert.assertEquals</title>
<path style="fill:none;stroke:black;" d="M2398,-217C2418,-207 2444,-194 2466,-184"/>
<polygon style="fill:black;stroke:black;" points="2467.96,-186.916 2475,-179 2464.56,-180.797 2467.96,-186.916"/>
</g>
</g>
</svg>
