<?xml version="1.0" encoding="UTF-8" standalone="no"?>
<!DOCTYPE svg PUBLIC "-//W3C//DTD SVG 1.0//EN"
 "http://www.w3.org/TR/2001/REC-SVG-20010904/DTD/svg10.dtd" [
 <!ATTLIST svg xmlns:xlink CDATA #FIXED "http://www.w3.org/1999/xlink">
]>
<!-- Generated by Graphviz version 2.20.3 (Tue Oct 14 12:23:50 UTC 2008)
     For user: (philipp) philipp. -->
<!-- Title: Relation Pages: 1 -->
<svg width="2705pt" height="260pt"
 viewBox="0.00 0.00 2705.00 260.00" xmlns="http://www.w3.org/2000/svg" xmlns:xlink="http://www.w3.org/1999/xlink">
<g id="graph0" class="graph" transform="scale(1 1) rotate(0) translate(4 256)">
<title>Relation</title>
<polygon style="fill:white;stroke:white;" points="-4,4 -4,-256 2701,-256 2701,4 -4,4"/>
<!-- org.softlang.operations.Cut -->
<g id="node1" class="node"><title>org.softlang.operations.Cut</title>
<ellipse style="fill:none;stroke:black;" cx="482" cy="-162" rx="116.935" ry="18"/>
<text text-anchor="middle" x="482" y="-157.9" style="font-family:Times New Roman;font-size:14.00;">org.softlang.operations.Cut</text>
</g>
<!-- org.softlang.recognizer.Parser -->
<g id="node3" class="node"><title>org.softlang.recognizer.Parser</title>
<ellipse style="fill:none;stroke:black;" cx="593" cy="-90" rx="127.163" ry="18"/>
<text text-anchor="middle" x="593" y="-85.9" style="font-family:Times New Roman;font-size:14.00;">org.softlang.recognizer.Parser</text>
</g>
<!-- org.softlang.operations.Cut&#45;&gt;org.softlang.recognizer.Parser -->
<g id="edge2" class="edge"><title>org.softlang.operations.Cut&#45;&gt;org.softlang.recognizer.Parser</title>
<path style="fill:none;stroke:black;" d="M509,-144C523,-135 541,-123 557,-113"/>
<polygon style="fill:black;stroke:black;" points="558.958,-115.916 566,-108 555.559,-109.797 558.958,-115.916"/>
</g>
<!-- java.io.Writer -->
<g id="node5" class="node"><title>java.io.Writer</title>
<polygon style="fill:none;stroke:black;" points="90,-108 4.26326e-14,-108 0,-72 90,-72 90,-108"/>
<text text-anchor="middle" x="45" y="-85.9" style="font-family:Times New Roman;font-size:14.00;">java.io.Writer</text>
</g>
<!-- org.softlang.operations.Cut&#45;&gt;java.io.Writer -->
<g id="edge4" class="edge"><title>org.softlang.operations.Cut&#45;&gt;java.io.Writer</title>
<path style="fill:none;stroke:black;" d="M381,-153C306,-144 201,-131 100,-108"/>
<polygon style="fill:black;stroke:black;" points="100.492,-104.529 90,-106 99.1194,-111.393 100.492,-104.529"/>
</g>
<!-- java.io.OutputStreamWriter -->
<g id="node7" class="node"><title>java.io.OutputStreamWriter</title>
<polygon style="fill:none;stroke:black;" points="276,-108 108,-108 108,-72 276,-72 276,-108"/>
<text text-anchor="middle" x="192" y="-85.9" style="font-family:Times New Roman;font-size:14.00;">java.io.OutputStreamWriter</text>
</g>
<!-- org.softlang.operations.Cut&#45;&gt;java.io.OutputStreamWriter -->
<g id="edge6" class="edge"><title>org.softlang.operations.Cut&#45;&gt;java.io.OutputStreamWriter</title>
<path style="fill:none;stroke:black;" d="M420,-147C378,-136 321,-122 275,-110"/>
<polygon style="fill:black;stroke:black;" points="275.492,-106.529 265,-108 274.119,-113.393 275.492,-106.529"/>
</g>
<!-- java.io.FileOutputStream -->
<g id="node9" class="node"><title>java.io.FileOutputStream</title>
<polygon style="fill:none;stroke:black;" points="448,-108 294,-108 294,-72 448,-72 448,-108"/>
<text text-anchor="middle" x="371" y="-85.9" style="font-family:Times New Roman;font-size:14.00;">java.io.FileOutputStream</text>
</g>
<!-- org.softlang.operations.Cut&#45;&gt;java.io.FileOutputStream -->
<g id="edge8" class="edge"><title>org.softlang.operations.Cut&#45;&gt;java.io.FileOutputStream</title>
<path style="fill:none;stroke:black;" d="M455,-144C441,-135 423,-124 408,-114"/>
<polygon style="fill:black;stroke:black;" points="409.262,-110.635 399,-108 405.379,-116.459 409.262,-110.635"/>
</g>
<!-- java.io.IOException -->
<g id="node11" class="node"><title>java.io.IOException</title>
<polygon style="fill:none;stroke:black;" points="864,-108 738,-108 738,-72 864,-72 864,-108"/>
<text text-anchor="middle" x="801" y="-85.9" style="font-family:Times New Roman;font-size:14.00;">java.io.IOException</text>
</g>
<!-- org.softlang.operations.Cut&#45;&gt;java.io.IOException -->
<g id="edge10" class="edge"><title>org.softlang.operations.Cut&#45;&gt;java.io.IOException</title>
<path style="fill:none;stroke:black;" d="M550,-147C598,-137 662,-123 728,-108"/>
<polygon style="fill:black;stroke:black;" points="728.881,-111.393 738,-106 727.508,-104.529 728.881,-111.393"/>
</g>
<!-- org.softlang.recognizer.Token.* -->
<g id="node16" class="node"><title>org.softlang.recognizer.Token.*</title>
<polygon style="fill:none;stroke:black;" points="988,-36 796,-36 796,-1.77636e-14 988,-3.55271e-15 988,-36"/>
<text text-anchor="middle" x="892" y="-13.9" style="font-family:Times New Roman;font-size:14.00;">org.softlang.recognizer.Token.*</text>
</g>
<!-- org.softlang.recognizer.Parser&#45;&gt;org.softlang.recognizer.Token.* -->
<g id="edge38" class="edge"><title>org.softlang.recognizer.Parser&#45;&gt;org.softlang.recognizer.Token.*</title>
<path style="fill:none;stroke:black;" d="M658,-74C701,-64 759,-50 806,-38"/>
<polygon style="fill:black;stroke:black;" points="806.881,-41.3933 816,-36 805.508,-34.5292 806.881,-41.3933"/>
</g>
<!-- java.io.FileNotFoundException -->
<g id="node18" class="node"><title>java.io.FileNotFoundException</title>
<polygon style="fill:none;stroke:black;" points="2089,-36 1899,-36 1899,-1.77636e-14 2089,-3.55271e-15 2089,-36"/>
<text text-anchor="middle" x="1994" y="-13.9" style="font-family:Times New Roman;font-size:14.00;">java.io.FileNotFoundException</text>
</g>
<!-- org.softlang.recognizer.Parser&#45;&gt;java.io.FileNotFoundException -->
<g id="edge40" class="edge"><title>org.softlang.recognizer.Parser&#45;&gt;java.io.FileNotFoundException</title>
<path style="fill:none;stroke:black;" d="M681,-77C697,-75 714,-73 729,-72 1158,-35 1672,-22 1889,-19"/>
<polygon style="fill:black;stroke:black;" points="1889,-22.5001 1899,-19 1889,-15.5001 1889,-22.5001"/>
</g>
<!-- org.softlang.operations.Total -->
<g id="node12" class="node"><title>org.softlang.operations.Total</title>
<ellipse style="fill:none;stroke:black;" cx="922" cy="-162" rx="122.994" ry="18"/>
<text text-anchor="middle" x="922" y="-157.9" style="font-family:Times New Roman;font-size:14.00;">org.softlang.operations.Total</text>
</g>
<!-- org.softlang.operations.Total&#45;&gt;org.softlang.recognizer.Parser -->
<g id="edge12" class="edge"><title>org.softlang.operations.Total&#45;&gt;org.softlang.recognizer.Parser</title>
<path style="fill:none;stroke:black;" d="M853,-147C800,-136 727,-119 672,-107"/>
<polygon style="fill:black;stroke:black;" points="672.492,-103.529 662,-105 671.119,-110.393 672.492,-103.529"/>
</g>
<!-- org.softlang.recognizer.Acceptor -->
<g id="node14" class="node"><title>org.softlang.recognizer.Acceptor</title>
<ellipse style="fill:none;stroke:black;" cx="1059" cy="-90" rx="138.976" ry="18"/>
<text text-anchor="middle" x="1059" y="-85.9" style="font-family:Times New Roman;font-size:14.00;">org.softlang.recognizer.Acceptor</text>
</g>
<!-- org.softlang.recognizer.Acceptor&#45;&gt;org.softlang.recognizer.Token.* -->
<g id="edge14" class="edge"><title>org.softlang.recognizer.Acceptor&#45;&gt;org.softlang.recognizer.Token.*</title>
<path style="fill:none;stroke:black;" d="M1019,-73C997,-63 968,-50 943,-40"/>
<polygon style="fill:black;stroke:black;" points="944.56,-36.8631 934,-36 941.717,-43.2598 944.56,-36.8631"/>
</g>
<!-- org.softlang.recognizer.Acceptor&#45;&gt;java.io.FileNotFoundException -->
<g id="edge16" class="edge"><title>org.softlang.recognizer.Acceptor&#45;&gt;java.io.FileNotFoundException</title>
<path style="fill:none;stroke:black;" d="M1157,-77C1174,-75 1191,-73 1207,-72 1450,-49 1738,-32 1889,-24"/>
<polygon style="fill:black;stroke:black;" points="1889.4,-27.4778 1899,-23 1888.7,-20.5125 1889.4,-27.4778"/>
</g>
<!-- org.softlang.recognizer.Lexer -->
<g id="node19" class="node"><title>org.softlang.recognizer.Lexer</title>
<ellipse style="fill:none;stroke:black;" cx="1622" cy="-162" rx="123.884" ry="18"/>
<text text-anchor="middle" x="1622" y="-157.9" style="font-family:Times New Roman;font-size:14.00;">org.softlang.recognizer.Lexer</text>
</g>
<!-- org.softlang.recognizer.Lexer&#45;&gt;java.io.IOException -->
<g id="edge28" class="edge"><title>org.softlang.recognizer.Lexer&#45;&gt;java.io.IOException</title>
<path style="fill:none;stroke:black;" d="M1506,-156C1327,-146 995,-125 878,-108 877,-108 875,-107 874,-107"/>
<polygon style="fill:black;stroke:black;" points="874.492,-103.529 864,-105 873.119,-110.393 874.492,-103.529"/>
</g>
<!-- org.softlang.recognizer.Lexer&#45;&gt;org.softlang.recognizer.Token.* -->
<g id="edge18" class="edge"><title>org.softlang.recognizer.Lexer&#45;&gt;org.softlang.recognizer.Token.*</title>
<path style="fill:none;stroke:black;" d="M1503,-157C1307,-147 932,-127 911,-108 894,-93 890,-66 890,-46"/>
<polygon style="fill:black;stroke:black;" points="893.5,-46 890,-36 886.5,-46 893.5,-46"/>
</g>
<!-- org.softlang.recognizer.Lexer&#45;&gt;java.io.FileNotFoundException -->
<g id="edge24" class="edge"><title>org.softlang.recognizer.Lexer&#45;&gt;java.io.FileNotFoundException</title>
<path style="fill:none;stroke:black;" d="M1726,-152C1823,-142 1957,-125 1975,-108 1991,-92 1995,-66 1996,-46"/>
<polygon style="fill:black;stroke:black;" points="1999.5,-46 1996,-36 1992.5,-46 1999.5,-46"/>
</g>
<!-- java.io.File -->
<g id="node22" class="node"><title>java.io.File</title>
<polygon style="fill:none;stroke:black;" points="2136,-108 2060,-108 2060,-72 2136,-72 2136,-108"/>
<text text-anchor="middle" x="2098" y="-85.9" style="font-family:Times New Roman;font-size:14.00;">java.io.File</text>
</g>
<!-- org.softlang.recognizer.Lexer&#45;&gt;java.io.File -->
<g id="edge20" class="edge"><title>org.softlang.recognizer.Lexer&#45;&gt;java.io.File</title>
<path style="fill:none;stroke:black;" d="M1716,-150C1794,-140 1908,-124 2008,-108 2022,-106 2036,-103 2050,-100"/>
<polygon style="fill:black;stroke:black;" points="2050.88,-103.393 2060,-98 2049.51,-96.5292 2050.88,-103.393"/>
</g>
<!-- java.io.BufferedReader -->
<g id="node24" class="node"><title>java.io.BufferedReader</title>
<polygon style="fill:none;stroke:black;" points="1360,-108 1216,-108 1216,-72 1360,-72 1360,-108"/>
<text text-anchor="middle" x="1288" y="-85.9" style="font-family:Times New Roman;font-size:14.00;">java.io.BufferedReader</text>
</g>
<!-- org.softlang.recognizer.Lexer&#45;&gt;java.io.BufferedReader -->
<g id="edge22" class="edge"><title>org.softlang.recognizer.Lexer&#45;&gt;java.io.BufferedReader</title>
<path style="fill:none;stroke:black;" d="M1552,-147C1503,-137 1438,-122 1370,-108"/>
<polygon style="fill:black;stroke:black;" points="1370.49,-104.529 1360,-106 1369.12,-111.393 1370.49,-104.529"/>
</g>
<!-- java.io.FileReader -->
<g id="node27" class="node"><title>java.io.FileReader</title>
<polygon style="fill:none;stroke:black;" points="1494,-108 1378,-108 1378,-72 1494,-72 1494,-108"/>
<text text-anchor="middle" x="1436" y="-85.9" style="font-family:Times New Roman;font-size:14.00;">java.io.FileReader</text>
</g>
<!-- org.softlang.recognizer.Lexer&#45;&gt;java.io.FileReader -->
<g id="edge26" class="edge"><title>org.softlang.recognizer.Lexer&#45;&gt;java.io.FileReader</title>
<path style="fill:none;stroke:black;" d="M1578,-145C1552,-135 1520,-122 1492,-112"/>
<polygon style="fill:black;stroke:black;" points="1492.58,-108.464 1482,-108 1489.98,-114.964 1492.58,-108.464"/>
</g>
<!-- java.io.Reader -->
<g id="node30" class="node"><title>java.io.Reader</title>
<polygon style="fill:none;stroke:black;" points="1608,-108 1512,-108 1512,-72 1608,-72 1608,-108"/>
<text text-anchor="middle" x="1560" y="-85.9" style="font-family:Times New Roman;font-size:14.00;">java.io.Reader</text>
</g>
<!-- org.softlang.recognizer.Lexer&#45;&gt;java.io.Reader -->
<g id="edge30" class="edge"><title>org.softlang.recognizer.Lexer&#45;&gt;java.io.Reader</title>
<path style="fill:none;stroke:black;" d="M1606,-144C1599,-135 1590,-125 1582,-116"/>
<polygon style="fill:black;stroke:black;" points="1584.22,-113.221 1575,-108 1578.95,-117.831 1584.22,-113.221"/>
</g>
<!-- java.util.HashMap -->
<g id="node32" class="node"><title>java.util.HashMap</title>
<polygon style="fill:none;stroke:black;" points="1742,-108 1626,-108 1626,-72 1742,-72 1742,-108"/>
<text text-anchor="middle" x="1684" y="-85.9" style="font-family:Times New Roman;font-size:14.00;">java.util.HashMap</text>
</g>
<!-- org.softlang.recognizer.Lexer&#45;&gt;java.util.HashMap -->
<g id="edge32" class="edge"><title>org.softlang.recognizer.Lexer&#45;&gt;java.util.HashMap</title>
<path style="fill:none;stroke:black;" d="M1638,-144C1645,-135 1654,-125 1662,-116"/>
<polygon style="fill:black;stroke:black;" points="1665.05,-117.831 1669,-108 1659.78,-113.221 1665.05,-117.831"/>
</g>
<!-- java.util.Iterator -->
<g id="node34" class="node"><title>java.util.Iterator</title>
<polygon style="fill:none;stroke:black;" points="1862,-108 1760,-108 1760,-72 1862,-72 1862,-108"/>
<text text-anchor="middle" x="1811" y="-85.9" style="font-family:Times New Roman;font-size:14.00;">java.util.Iterator</text>
</g>
<!-- org.softlang.recognizer.Lexer&#45;&gt;java.util.Iterator -->
<g id="edge34" class="edge"><title>org.softlang.recognizer.Lexer&#45;&gt;java.util.Iterator</title>
<path style="fill:none;stroke:black;" d="M1666,-145C1692,-135 1726,-122 1755,-111"/>
<polygon style="fill:black;stroke:black;" points="1755.62,-114.483 1764,-108 1753.41,-107.842 1755.62,-114.483"/>
</g>
<!-- java.util.Map -->
<g id="node36" class="node"><title>java.util.Map</title>
<polygon style="fill:none;stroke:black;" points="1966,-108 1880,-108 1880,-72 1966,-72 1966,-108"/>
<text text-anchor="middle" x="1923" y="-85.9" style="font-family:Times New Roman;font-size:14.00;">java.util.Map</text>
</g>
<!-- org.softlang.recognizer.Lexer&#45;&gt;java.util.Map -->
<g id="edge36" class="edge"><title>org.softlang.recognizer.Lexer&#45;&gt;java.util.Map</title>
<path style="fill:none;stroke:black;" d="M1698,-148C1745,-138 1807,-125 1870,-108"/>
<polygon style="fill:black;stroke:black;" points="1871.43,-111.226 1880,-105 1869.42,-104.521 1871.43,-111.226"/>
</g>
<!-- org.softlang.recognizer.RecognitionException -->
<g id="node39" class="node"><title>org.softlang.recognizer.RecognitionException</title>
<ellipse style="fill:none;stroke:black;" cx="2237" cy="-234" rx="187.814" ry="18"/>
<text text-anchor="middle" x="2237" y="-229.9" style="font-family:Times New Roman;font-size:14.00;">org.softlang.recognizer.RecognitionException</text>
</g>
<!-- org.softlang.recognizer.Token -->
<g id="node40" class="node"><title>org.softlang.recognizer.Token</title>
<ellipse style="fill:none;stroke:black;" cx="2570" cy="-234" rx="127.163" ry="18"/>
<text text-anchor="middle" x="2570" y="-229.9" style="font-family:Times New Roman;font-size:14.00;">org.softlang.recognizer.Token</text>
</g>
<!-- org.softlang.tests.Noop -->
<g id="node41" class="node"><title>org.softlang.tests.Noop</title>
<ellipse style="fill:none;stroke:black;" cx="2269" cy="-162" rx="102.843" ry="18"/>
<text text-anchor="middle" x="2269" y="-157.9" style="font-family:Times New Roman;font-size:14.00;">org.softlang.tests.Noop</text>
</g>
<!-- org.softlang.tests.Noop&#45;&gt;java.io.FileNotFoundException -->
<g id="edge48" class="edge"><title>org.softlang.tests.Noop&#45;&gt;java.io.FileNotFoundException</title>
<path style="fill:none;stroke:black;" d="M2238,-145C2221,-135 2200,-121 2183,-108 2164,-93 2164,-84 2145,-72 2123,-58 2097,-48 2074,-39"/>
<polygon style="fill:black;stroke:black;" points="2074.58,-35.5212 2064,-36 2072.57,-42.2259 2074.58,-35.5212"/>
</g>
<!-- org.softlang.tests.Noop&#45;&gt;java.io.File -->
<g id="edge46" class="edge"><title>org.softlang.tests.Noop&#45;&gt;java.io.File</title>
<path style="fill:none;stroke:black;" d="M2229,-145C2204,-134 2172,-121 2145,-110"/>
<polygon style="fill:black;stroke:black;" points="2146.56,-106.863 2136,-106 2143.72,-113.26 2146.56,-106.863"/>
</g>
<!-- org.junit.Test -->
<g id="node43" class="node"><title>org.junit.Test</title>
<polygon style="fill:none;stroke:black;" points="2454,-108 2364,-108 2364,-72 2454,-72 2454,-108"/>
<text text-anchor="middle" x="2409" y="-85.9" style="font-family:Times New Roman;font-size:14.00;">org.junit.Test</text>
</g>
<!-- org.softlang.tests.Noop&#45;&gt;org.junit.Test -->
<g id="edge42" class="edge"><title>org.softlang.tests.Noop&#45;&gt;org.junit.Test</title>
<path style="fill:none;stroke:black;" d="M2302,-145C2321,-135 2345,-123 2365,-113"/>
<polygon style="fill:black;stroke:black;" points="2366.96,-115.916 2374,-108 2363.56,-109.797 2366.96,-115.916"/>
</g>
<!-- org.softlang.recognizer.* -->
<g id="node45" class="node"><title>org.softlang.recognizer.*</title>
<polygon style="fill:none;stroke:black;" points="2346,-108 2192,-108 2192,-72 2346,-72 2346,-108"/>
<text text-anchor="middle" x="2269" y="-85.9" style="font-family:Times New Roman;font-size:14.00;">org.softlang.recognizer.*</text>
</g>
<!-- org.softlang.tests.Noop&#45;&gt;org.softlang.recognizer.* -->
<g id="edge44" class="edge"><title>org.softlang.tests.Noop&#45;&gt;org.softlang.recognizer.*</title>
<path style="fill:none;stroke:black;" d="M2269,-144C2269,-136 2269,-127 2269,-118"/>
<polygon style="fill:black;stroke:black;" points="2272.5,-118 2269,-108 2265.5,-118 2272.5,-118"/>
</g>
<!-- org.softlang.tests.Operations -->
<g id="node48" class="node"><title>org.softlang.tests.Operations</title>
<ellipse style="fill:none;stroke:black;" cx="1908" cy="-234" rx="122.994" ry="18"/>
<text text-anchor="middle" x="1908" y="-229.9" style="font-family:Times New Roman;font-size:14.00;">org.softlang.tests.Operations</text>
</g>
<!-- org.softlang.tests.Operations&#45;&gt;org.softlang.operations.Cut -->
<g id="edge56" class="edge"><title>org.softlang.tests.Operations&#45;&gt;org.softlang.operations.Cut</title>
<path style="fill:none;stroke:black;" d="M1790,-229C1586,-219 1154,-199 790,-180 728,-176 659,-172 602,-169"/>
<polygon style="fill:black;stroke:black;" points="602.299,-165.512 592,-168 601.602,-172.478 602.299,-165.512"/>
</g>
<!-- org.softlang.tests.Operations&#45;&gt;java.io.IOException -->
<g id="edge62" class="edge"><title>org.softlang.tests.Operations&#45;&gt;java.io.IOException</title>
<path style="fill:none;stroke:black;" d="M1805,-224C1620,-206 1221,-163 887,-108 883,-107 879,-107 874,-106"/>
<polygon style="fill:black;stroke:black;" points="874.492,-102.529 864,-104 873.119,-109.393 874.492,-102.529"/>
</g>
<!-- org.softlang.tests.Operations&#45;&gt;org.softlang.operations.Total -->
<g id="edge54" class="edge"><title>org.softlang.tests.Operations&#45;&gt;org.softlang.operations.Total</title>
<path style="fill:none;stroke:black;" d="M1798,-226C1611,-212 1236,-185 1042,-171"/>
<polygon style="fill:black;stroke:black;" points="1042.3,-167.512 1032,-170 1041.6,-174.478 1042.3,-167.512"/>
</g>
<!-- org.softlang.tests.Operations&#45;&gt;java.io.FileNotFoundException -->
<g id="edge60" class="edge"><title>org.softlang.tests.Operations&#45;&gt;java.io.FileNotFoundException</title>
<path style="fill:none;stroke:black;" d="M1907,-216C1908,-196 1911,-165 1927,-144 1947,-116 1977,-137 1995,-108 2006,-90 2005,-65 2001,-46"/>
<polygon style="fill:black;stroke:black;" points="2004.39,-45.1194 1999,-36 1997.53,-46.4922 2004.39,-45.1194"/>
</g>
<!-- org.softlang.tests.Operations&#45;&gt;java.io.File -->
<g id="edge58" class="edge"><title>org.softlang.tests.Operations&#45;&gt;java.io.File</title>
<path style="fill:none;stroke:black;" d="M1999,-222C2049,-213 2104,-199 2119,-180 2133,-162 2125,-136 2115,-117"/>
<polygon style="fill:black;stroke:black;" points="2117.92,-115.042 2110,-108 2111.8,-118.441 2117.92,-115.042"/>
</g>
<!-- org.softlang.tests.Operations&#45;&gt;org.junit.Test -->
<g id="edge50" class="edge"><title>org.softlang.tests.Operations&#45;&gt;org.junit.Test</title>
<path style="fill:none;stroke:black;" d="M1997,-221C2011,-220 2026,-218 2040,-216 2115,-206 2322,-228 2381,-180 2399,-165 2405,-138 2408,-118"/>
<polygon style="fill:black;stroke:black;" points="2411.49,-118.299 2409,-108 2404.52,-117.602 2411.49,-118.299"/>
</g>
<!-- org.junit.Assert.assertEquals -->
<g id="node51" class="node"><title>org.junit.Assert.assertEquals</title>
<polygon style="fill:none;stroke:black;" points="2110,-180 1936,-180 1936,-144 2110,-144 2110,-180"/>
<text text-anchor="middle" x="2023" y="-157.9" style="font-family:Times New Roman;font-size:14.00;">org.junit.Assert.assertEquals</text>
</g>
<!-- org.softlang.tests.Operations&#45;&gt;org.junit.Assert.assertEquals -->
<g id="edge52" class="edge"><title>org.softlang.tests.Operations&#45;&gt;org.junit.Assert.assertEquals</title>
<path style="fill:none;stroke:black;" d="M1936,-216C1951,-207 1969,-195 1985,-185"/>
<polygon style="fill:black;stroke:black;" points="1986.96,-187.916 1994,-180 1983.56,-181.797 1986.96,-187.916"/>
</g>
</g>
</svg>
